<svg xmlns="http://www.w3.org/2000/svg" xmlns:svgjs="http://svgjs.dev/svgjs" xmlns:xlink="http://www.w3.org/1999/xlink" width="800" height="800" version="1.1" viewBox="0 0 800 800"><g fill="none" stroke="hsla(0, 0%, 0%, 0.08)" stroke-width=".5"><rect width="66.667" height="66.667" x="0" y="0"/><rect width="66.667" height="66.667" x="66.667" y="0"/><rect width="66.667" height="66.667" x="133.333" y="0"/><rect width="66.667" height="66.667" x="200" y="0"/><rect width="66.667" height="66.667" x="266.667" y="0"/><rect width="66.667" height="66.667" x="333.333" y="0"/><rect width="66.667" height="66.667" x="400" y="0"/><rect width="66.667" height="66.667" x="466.667" y="0"/><rect width="66.667" height="66.667" x="533.333" y="0"/><rect width="66.667" height="66.667" x="600" y="0"/><rect width="66.667" height="66.667" x="666.667" y="0"/><rect width="66.667" height="66.667" x="733.333" y="0"/><rect width="66.667" height="66.667" x="800" y="0"/><rect width="66.667" height="66.667" x="0" y="66.667"/><rect width="66.667" height="66.667" x="66.667" y="66.667"/><rect width="66.667" height="66.667" x="133.333" y="66.667"/><rect width="66.667" height="66.667" x="200" y="66.667"/><rect width="66.667" height="66.667" x="266.667" y="66.667"/><rect width="66.667" height="66.667" x="333.333" y="66.667"/><rect width="66.667" height="66.667" x="400" y="66.667"/><rect width="66.667" height="66.667" x="466.667" y="66.667"/><rect width="66.667" height="66.667" x="533.333" y="66.667"/><rect width="66.667" height="66.667" x="600" y="66.667"/><rect width="66.667" height="66.667" x="666.667" y="66.667"/><rect width="66.667" height="66.667" x="733.333" y="66.667"/><rect width="66.667" height="66.667" x="800" y="66.667"/><rect width="66.667" height="66.667" x="0" y="133.333"/><rect width="66.667" height="66.667" x="66.667" y="133.333"/><rect width="66.667" height="66.667" x="133.333" y="133.333"/><rect width="66.667" height="66.667" x="200" y="133.333"/><rect width="66.667" height="66.667" x="266.667" y="133.333"/><rect width="66.667" height="66.667" x="333.333" y="133.333"/><rect width="66.667" height="66.667" x="400" y="133.333"/><rect width="66.667" height="66.667" x="466.667" y="133.333"/><rect width="66.667" height="66.667" x="533.333" y="133.333"/><rect width="66.667" height="66.667" x="600" y="133.333"/><rect width="66.667" height="66.667" x="666.667" y="133.333"/><rect width="66.667" height="66.667" x="733.333" y="133.333"/><rect width="66.667" height="66.667" x="800" y="133.333"/><rect width="66.667" height="66.667" x="0" y="200"/><rect width="66.667" height="66.667" x="66.667" y="200"/><rect width="66.667" height="66.667" x="133.333" y="200"/><rect width="66.667" height="66.667" x="200" y="200"/><rect width="66.667" height="66.667" x="266.667" y="200"/><rect width="66.667" height="66.667" x="333.333" y="200"/><rect width="66.667" height="66.667" x="400" y="200"/><rect width="66.667" height="66.667" x="466.667" y="200"/><rect width="66.667" height="66.667" x="533.333" y="200"/><rect width="66.667" height="66.667" x="600" y="200"/><rect width="66.667" height="66.667" x="666.667" y="200"/><rect width="66.667" height="66.667" x="733.333" y="200"/><rect width="66.667" height="66.667" x="800" y="200"/><rect width="66.667" height="66.667" x="0" y="266.667"/><rect width="66.667" height="66.667" x="66.667" y="266.667"/><rect width="66.667" height="66.667" x="133.333" y="266.667"/><rect width="66.667" height="66.667" x="200" y="266.667"/><rect width="66.667" height="66.667" x="266.667" y="266.667"/><rect width="66.667" height="66.667" x="333.333" y="266.667"/><rect width="66.667" height="66.667" x="400" y="266.667"/><rect width="66.667" height="66.667" x="466.667" y="266.667"/><rect width="66.667" height="66.667" x="533.333" y="266.667"/><rect width="66.667" height="66.667" x="600" y="266.667"/><rect width="66.667" height="66.667" x="666.667" y="266.667"/><rect width="66.667" height="66.667" x="733.333" y="266.667"/><rect width="66.667" height="66.667" x="800" y="266.667"/><rect width="66.667" height="66.667" x="0" y="333.333"/><rect width="66.667" height="66.667" x="66.667" y="333.333"/><rect width="66.667" height="66.667" x="133.333" y="333.333"/><rect width="66.667" height="66.667" x="200" y="333.333"/><rect width="66.667" height="66.667" x="266.667" y="333.333"/><rect width="66.667" height="66.667" x="333.333" y="333.333"/><rect width="66.667" height="66.667" x="400" y="333.333"/><rect width="66.667" height="66.667" x="466.667" y="333.333"/><rect width="66.667" height="66.667" x="533.333" y="333.333"/><rect width="66.667" height="66.667" x="600" y="333.333"/><rect width="66.667" height="66.667" x="666.667" y="333.333"/><rect width="66.667" height="66.667" x="733.333" y="333.333"/><rect width="66.667" height="66.667" x="800" y="333.333"/><rect width="66.667" height="66.667" x="0" y="400"/><rect width="66.667" height="66.667" x="66.667" y="400"/><rect width="66.667" height="66.667" x="133.333" y="400"/><rect width="66.667" height="66.667" x="200" y="400"/><rect width="66.667" height="66.667" x="266.667" y="400"/><rect width="66.667" height="66.667" x="333.333" y="400"/><rect width="66.667" height="66.667" x="400" y="400"/><rect width="66.667" height="66.667" x="466.667" y="400"/><rect width="66.667" height="66.667" x="533.333" y="400"/><rect width="66.667" height="66.667" x="600" y="400"/><rect width="66.667" height="66.667" x="666.667" y="400"/><rect width="66.667" height="66.667" x="733.333" y="400"/><rect width="66.667" height="66.667" x="800" y="400"/><rect width="66.667" height="66.667" x="0" y="466.667"/><rect width="66.667" height="66.667" x="66.667" y="466.667"/><rect width="66.667" height="66.667" x="133.333" y="466.667"/><rect width="66.667" height="66.667" x="200" y="466.667"/><rect width="66.667" height="66.667" x="266.667" y="466.667"/><rect width="66.667" height="66.667" x="333.333" y="466.667"/><rect width="66.667" height="66.667" x="400" y="466.667"/><rect width="66.667" height="66.667" x="466.667" y="466.667"/><rect width="66.667" height="66.667" x="533.333" y="466.667"/><rect width="66.667" height="66.667" x="600" y="466.667"/><rect width="66.667" height="66.667" x="666.667" y="466.667"/><rect width="66.667" height="66.667" x="733.333" y="466.667"/><rect width="66.667" height="66.667" x="800" y="466.667"/><rect width="66.667" height="66.667" x="0" y="533.333"/><rect width="66.667" height="66.667" x="66.667" y="533.333"/><rect width="66.667" height="66.667" x="133.333" y="533.333"/><rect width="66.667" height="66.667" x="200" y="533.333"/><rect width="66.667" height="66.667" x="266.667" y="533.333"/><rect width="66.667" height="66.667" x="333.333" y="533.333"/><rect width="66.667" height="66.667" x="400" y="533.333"/><rect width="66.667" height="66.667" x="466.667" y="533.333"/><rect width="66.667" height="66.667" x="533.333" y="533.333"/><rect width="66.667" height="66.667" x="600" y="533.333"/><rect width="66.667" height="66.667" x="666.667" y="533.333"/><rect width="66.667" height="66.667" x="733.333" y="533.333"/><rect width="66.667" height="66.667" x="800" y="533.333"/><rect width="66.667" height="66.667" x="0" y="600"/><rect width="66.667" height="66.667" x="66.667" y="600"/><rect width="66.667" height="66.667" x="133.333" y="600"/><rect width="66.667" height="66.667" x="200" y="600"/><rect width="66.667" height="66.667" x="266.667" y="600"/><rect width="66.667" height="66.667" x="333.333" y="600"/><rect width="66.667" height="66.667" x="400" y="600"/><rect width="66.667" height="66.667" x="466.667" y="600"/><rect width="66.667" height="66.667" x="533.333" y="600"/><rect width="66.667" height="66.667" x="600" y="600"/><rect width="66.667" height="66.667" x="666.667" y="600"/><rect width="66.667" height="66.667" x="733.333" y="600"/><rect width="66.667" height="66.667" x="800" y="600"/><rect width="66.667" height="66.667" x="0" y="666.667"/><rect width="66.667" height="66.667" x="66.667" y="666.667"/><rect width="66.667" height="66.667" x="133.333" y="666.667"/><rect width="66.667" height="66.667" x="200" y="666.667"/><rect width="66.667" height="66.667" x="266.667" y="666.667"/><rect width="66.667" height="66.667" x="333.333" y="666.667"/><rect width="66.667" height="66.667" x="400" y="666.667"/><rect width="66.667" height="66.667" x="466.667" y="666.667"/><rect width="66.667" height="66.667" x="533.333" y="666.667"/><rect width="66.667" height="66.667" x="600" y="666.667"/><rect width="66.667" height="66.667" x="666.667" y="666.667"/><rect width="66.667" height="66.667" x="733.333" y="666.667"/><rect width="66.667" height="66.667" x="800" y="666.667"/><rect width="66.667" height="66.667" x="0" y="733.333"/><rect width="66.667" height="66.667" x="66.667" y="733.333"/><rect width="66.667" height="66.667" x="133.333" y="733.333"/><rect width="66.667" height="66.667" x="200" y="733.333"/><rect width="66.667" height="66.667" x="266.667" y="733.333"/><rect width="66.667" height="66.667" x="333.333" y="733.333"/><rect width="66.667" height="66.667" x="400" y="733.333"/><rect width="66.667" height="66.667" x="466.667" y="733.333"/><rect width="66.667" height="66.667" x="533.333" y="733.333"/><rect width="66.667" height="66.667" x="600" y="733.333"/><rect width="66.667" height="66.667" x="666.667" y="733.333"/><rect width="66.667" height="66.667" x="733.333" y="733.333"/><rect width="66.667" height="66.667" x="800" y="733.333"/><rect width="66.667" height="66.667" x="0" y="800"/><rect width="66.667" height="66.667" x="66.667" y="800"/><rect width="66.667" height="66.667" x="133.333" y="800"/><rect width="66.667" height="66.667" x="200" y="800"/><rect width="66.667" height="66.667" x="266.667" y="800"/><rect width="66.667" height="66.667" x="333.333" y="800"/><rect width="66.667" height="66.667" x="400" y="800"/><rect width="66.667" height="66.667" x="466.667" y="800"/><rect width="66.667" height="66.667" x="533.333" y="800"/><rect width="66.667" height="66.667" x="600" y="800"/><rect width="66.667" height="66.667" x="666.667" y="800"/><rect width="66.667" height="66.667" x="733.333" y="800"/><rect width="66.667" height="66.667" x="800" y="800"/></g></svg>