<svg xmlns="http://www.w3.org/2000/svg" width="60" height="60" version="1.2" viewBox="0 0 60 60"><title>inquiry-svg</title><style>.s0{fill:none;stroke:#fff;stroke-linecap:round;stroke-linejoin:round;stroke-width:5}.s1{fill:#fff}</style><g id="g1088"><path id="path1710" d="m33 3.7c2.2 0.6 4.3 1.6 6.1 2.8q2.7 1.8 4.5 4.3 1.7 2.6 2.2 5.7c0.4 2.1 0.3 4.3-0.4 6.6-1 4.1-2.9 7-5.6 8.7q-3.9 2.5-9.6 2.2l-0.3 1.3q-0.5 1.5-1.5 2.6-1 1-2.4 1.3-1.3 0.3-2.8-0.1-1.5-0.4-2.5-1.3-1-1-1.4-2.4-0.3-1.4 0.1-2.9l1.5-5.4c0.3-1.1 0.7-1.9 1.3-2.4q0.9-0.7 2-0.7 1.1-0.1 3.1 0.1 5.4 0.4 6.5-3.8 0.4-1.7-0.6-3.4-1-1.7-3.2-2.3-2-0.5-3.4-0.1c-0.9 0.4-1.8 0.9-2.8 1.7q-1.5 1.2-2.8 1.7-1.2 0.5-3 0-1.9-0.5-3-2.4-1-1.9-0.4-4 1-3.6 4-5.6 3.1-2.1 7-2.6 3.9-0.5 7.4 0.4zm-11.4 41.2q1.5 0.4 2.6 1.6c0.8 0.8 1.2 1.7 1.5 2.8q0.5 1.5 0.1 3.1-0.5 1.6-1.7 2.7c-0.7 0.8-1.6 1.3-2.6 1.6q-1.6 0.4-3.1 0-1.5-0.4-2.6-1.6c-0.8-0.7-1.3-1.6-1.6-2.6q-0.5-1.6 0-3.2 0.4-1.6 1.5-2.7 1.2-1.2 2.8-1.6 1.5-0.5 3.1-0.1z" class="s0"/><path id="path839" fill-rule="evenodd" d="m33 3.7c2.2 0.6 4.3 1.6 6.1 2.8q2.7 1.8 4.5 4.3 1.7 2.6 2.2 5.7c0.4 2.1 0.3 4.3-0.4 6.6-1 4.1-2.9 7-5.6 8.7q-3.9 2.5-9.6 2.2l-0.3 1.3q-0.5 1.5-1.5 2.6-1 1-2.4 1.3-1.3 0.3-2.8-0.1-1.5-0.4-2.5-1.3-1-1-1.4-2.4-0.3-1.4 0.1-2.9l1.5-5.4c0.3-1.1 0.7-1.9 1.3-2.4q0.9-0.7 2-0.7 1.1-0.1 3.1 0.1 5.4 0.4 6.5-3.8 0.4-1.7-0.6-3.4-1-1.7-3.2-2.3-2-0.5-3.4-0.1c-0.9 0.4-1.8 0.9-2.8 1.7q-1.5 1.2-2.8 1.7-1.2 0.5-3 0-1.9-0.5-3-2.4-1-1.9-0.4-4 1-3.6 4-5.6 3.1-2.1 7-2.6 3.9-0.5 7.4 0.4zm-11.4 41.2q1.5 0.4 2.6 1.6c0.8 0.8 1.2 1.7 1.5 2.8q0.5 1.5 0.1 3.1-0.5 1.6-1.7 2.7c-0.7 0.8-1.6 1.3-2.6 1.6q-1.6 0.4-3.1 0-1.5-0.4-2.6-1.6c-0.8-0.7-1.3-1.6-1.6-2.6q-0.5-1.6 0-3.2 0.4-1.6 1.5-2.7 1.2-1.2 2.8-1.6 1.5-0.5 3.1-0.1z" class="s1"/></g></svg>